<svg width="24" height="14" viewBox="0 0 24 14" fill="none" xmlns="http://www.w3.org/2000/svg">
<path fill-rule="evenodd" clip-rule="evenodd" d="M20.4 8.71111L19.2 4.66667H16.9231L16.2769 1.86667H8.86154V0H4.86154V1.86667H3.50769L2.98462 4.66667H1.84615L1.26154 8.71111H0L1.07692 14H20.7692L23.6923 8.71111H20.4ZM6.09231 1.24444H7.63077V1.86667H6.09231V1.24444ZM15.3231 3.11111H4.52308L4.21538 4.66667H15.6923L15.3231 3.11111ZM2.89231 5.91111H17.2H18.2769L19.1077 8.71111H2.49231L2.89231 5.91111ZM1.90769 11.8222L2.06154 12.7556H20.0615L20.4923 11.8222H15.6308V10.8889H21.0462L21.5692 9.95556H20.7692H1.50769L1.69231 10.8889H5.16923V11.8222H1.90769Z" fill="white"/>
<rect x="12.8613" y="10.8889" width="0.923077" height="0.933333" fill="white"/>
<rect x="7.01562" y="10.8889" width="0.923077" height="0.933333" fill="white"/>
<rect x="3.63086" y="6.84445" width="0.923077" height="0.933333" fill="white"/>
<rect x="6.09229" y="3.42221" width="0.923077" height="0.933333" fill="white"/>
<rect x="9.47705" y="3.42221" width="0.923077" height="0.933333" fill="white"/>
<rect x="12.8613" y="3.42221" width="0.923077" height="0.933333" fill="white"/>
<rect x="6.09229" y="6.84445" width="0.923077" height="0.933333" fill="white"/>
<rect x="8.86133" y="6.84445" width="0.923077" height="0.933333" fill="white"/>
<rect x="11.3232" y="6.84445" width="0.923077" height="0.933333" fill="white"/>
<rect x="14.0923" y="6.84445" width="0.923077" height="0.933333" fill="white"/>
<rect x="16.5537" y="6.84445" width="0.923077" height="0.933333" fill="white"/>
</svg>
