<svg width="24" height="20" viewBox="0 0 24 20" fill="none" xmlns="http://www.w3.org/2000/svg">
<path d="M11.1212 4.88411C11.1212 5.06093 11.1093 5.23775 11.0855 5.41457C11.0974 5.33094 11.1093 5.24492 11.1188 5.16129C11.0712 5.50298 10.9808 5.83512 10.8498 6.15292C10.8808 6.07646 10.9141 6 10.945 5.92353C10.8141 6.23417 10.645 6.52329 10.4427 6.79092C10.4927 6.7264 10.5427 6.66188 10.5927 6.59737C10.3831 6.86977 10.1403 7.1135 9.86885 7.32377C9.93313 7.27359 9.99742 7.22341 10.0617 7.17323C9.79504 7.37634 9.50456 7.54599 9.19742 7.67742C9.27361 7.64635 9.3498 7.6129 9.42599 7.58184C9.10932 7.71326 8.77837 7.80406 8.43789 7.85185C8.52123 7.8399 8.60694 7.82795 8.69028 7.8184C8.33789 7.8638 7.98551 7.8638 7.63313 7.8184C7.71647 7.83034 7.80218 7.84229 7.88551 7.85185C7.54504 7.80406 7.21409 7.71326 6.89742 7.58184C6.97361 7.6129 7.0498 7.64635 7.12599 7.67742C6.81647 7.54599 6.52837 7.37634 6.2617 7.17323C6.32599 7.22341 6.39028 7.27359 6.45456 7.32377C6.18313 7.1135 5.94028 6.86977 5.73075 6.59737C5.78075 6.66188 5.83075 6.7264 5.88075 6.79092C5.67837 6.52329 5.50932 6.23178 5.37837 5.92353C5.40932 6 5.44266 6.07646 5.47361 6.15292C5.34266 5.83512 5.25218 5.50298 5.20456 5.16129C5.21647 5.24492 5.22837 5.33094 5.23789 5.41457C5.19266 5.06093 5.19266 4.70728 5.23789 4.35364C5.22599 4.43727 5.21409 4.52329 5.20456 4.60693C5.25218 4.26523 5.34266 3.93309 5.47361 3.61529C5.44266 3.69175 5.40932 3.76822 5.37837 3.84468C5.50932 3.53405 5.67837 3.24492 5.88075 2.9773C5.83075 3.04181 5.78075 3.10633 5.73075 3.17084C5.94028 2.89844 6.18313 2.65472 6.45456 2.44444C6.39028 2.49462 6.32599 2.5448 6.2617 2.59498C6.52837 2.39187 6.81885 2.22222 7.12599 2.0908C7.0498 2.12186 6.97361 2.15531 6.89742 2.18638C7.21409 2.05495 7.54504 1.96415 7.88551 1.91636C7.80218 1.92831 7.71647 1.94026 7.63313 1.94982C7.98551 1.90442 8.33789 1.90442 8.69028 1.94982C8.60694 1.93787 8.52123 1.92592 8.43789 1.91636C8.77837 1.96415 9.10932 2.05495 9.42599 2.18638C9.3498 2.15531 9.27361 2.12186 9.19742 2.0908C9.50694 2.22222 9.79504 2.39187 10.0617 2.59498C9.99742 2.5448 9.93313 2.49462 9.86885 2.44444C10.1403 2.65472 10.3831 2.89844 10.5927 3.17084C10.5427 3.10633 10.4927 3.04181 10.4427 2.9773C10.645 3.24492 10.8141 3.53644 10.945 3.84468C10.9141 3.76822 10.8808 3.69175 10.8498 3.61529C10.9808 3.93309 11.0712 4.26523 11.1188 4.60693C11.1069 4.52329 11.095 4.43727 11.0855 4.35364C11.1093 4.52807 11.1212 4.70489 11.1212 4.88411C11.1236 5.38351 11.5569 5.8638 12.0736 5.8399C12.5879 5.81601 13.0284 5.41935 13.026 4.88411C13.0212 3.9092 12.7331 2.908 12.1617 2.1123C11.8331 1.65352 11.4688 1.28076 11.0212 0.941454C10.6403 0.652326 10.2141 0.442051 9.76647 0.277176C7.93075 -0.401438 5.69742 0.203102 4.45694 1.72043C4.28789 1.92831 4.12361 2.14337 3.98313 2.37515C3.83789 2.61887 3.72361 2.87694 3.61885 3.13978C3.43313 3.59617 3.34504 4.07885 3.30456 4.56869C3.22599 5.54121 3.48075 6.56153 3.98313 7.39546C4.47123 8.20549 5.20932 8.90561 6.07361 9.2951C6.32123 9.4074 6.57599 9.51254 6.83789 9.58661C7.11885 9.66547 7.40456 9.70609 7.69504 9.74193C8.19028 9.80167 8.69266 9.75627 9.18075 9.6583C10.1093 9.47192 10.9998 8.96535 11.6546 8.28196C12.3165 7.59139 12.8022 6.68578 12.9474 5.73237C12.9903 5.45041 13.026 5.16846 13.026 4.88411C13.0284 4.3847 12.5855 3.90442 12.0736 3.92831C11.5569 3.94982 11.1236 4.34647 11.1212 4.88411Z" fill="white"/>
<path d="M19.3427 6.44921C19.3427 6.57107 19.3332 6.69294 19.3189 6.81241C19.3308 6.72878 19.3427 6.64276 19.3522 6.55912C19.3189 6.78374 19.2617 7.00118 19.176 7.20906C19.207 7.1326 19.2403 7.05614 19.2713 6.97967C19.1808 7.19234 19.0665 7.39306 18.926 7.57705C18.976 7.51253 19.026 7.44801 19.076 7.3835C18.9355 7.5651 18.7736 7.72758 18.5927 7.86856C18.657 7.81838 18.7213 7.7682 18.7855 7.71803C18.6022 7.85901 18.4022 7.9737 18.1903 8.0645C18.2665 8.03344 18.3427 7.99999 18.4189 7.96892C18.2093 8.05494 17.9927 8.11229 17.7713 8.14574C17.8546 8.1338 17.9403 8.12185 18.0236 8.11229C17.7832 8.14335 17.5403 8.14335 17.2974 8.11229C17.3808 8.12424 17.4665 8.13619 17.5498 8.14574C17.326 8.11229 17.1093 8.05494 16.9022 7.96892C16.9784 7.99999 17.0546 8.03344 17.1308 8.0645C16.9189 7.9737 16.7189 7.85901 16.5355 7.71803C16.5998 7.7682 16.6641 7.81838 16.7284 7.86856C16.5474 7.72758 16.3855 7.5651 16.2451 7.3835C16.2951 7.44801 16.3451 7.51253 16.3951 7.57705C16.2546 7.39306 16.1403 7.19234 16.0498 6.97967C16.0808 7.05614 16.1141 7.1326 16.1451 7.20906C16.0593 6.99879 16.0022 6.78135 15.9689 6.55912C15.9808 6.64276 15.9927 6.72878 16.0022 6.81241C15.9713 6.57107 15.9713 6.32734 16.0022 6.08362C15.9903 6.16725 15.9784 6.25327 15.9689 6.3369C16.0022 6.11229 16.0593 5.89485 16.1451 5.68696C16.1141 5.76343 16.0808 5.83989 16.0498 5.91635C16.1403 5.70369 16.2546 5.50297 16.3951 5.31898C16.3451 5.3835 16.2951 5.44801 16.2451 5.51253C16.3855 5.33093 16.5474 5.16844 16.7284 5.02746C16.6641 5.07764 16.5998 5.12782 16.5355 5.178C16.7189 5.03702 16.9189 4.92233 17.1308 4.83153C17.0546 4.86259 16.9784 4.89604 16.9022 4.92711C17.1117 4.84108 17.3284 4.78374 17.5498 4.75028C17.4665 4.76223 17.3808 4.77418 17.2974 4.78374C17.5379 4.75267 17.7808 4.75267 18.0236 4.78374C17.9403 4.77179 17.8546 4.75984 17.7713 4.75028C17.9951 4.78374 18.2117 4.84108 18.4189 4.92711C18.3427 4.89604 18.2665 4.86259 18.1903 4.83153C18.4022 4.92233 18.6022 5.03702 18.7855 5.178C18.7213 5.12782 18.657 5.07764 18.5927 5.02746C18.7736 5.16844 18.9355 5.33093 19.076 5.51253C19.026 5.44801 18.976 5.3835 18.926 5.31898C19.0665 5.50297 19.1808 5.70369 19.2713 5.91635C19.2403 5.83989 19.207 5.76343 19.176 5.68696C19.2617 5.89724 19.3189 6.11468 19.3522 6.3369C19.3403 6.25327 19.3284 6.16725 19.3189 6.08362C19.3332 6.20548 19.3427 6.32734 19.3427 6.44921C19.3451 6.69533 19.4474 6.951 19.6213 7.12543C19.7855 7.29031 20.057 7.41695 20.2951 7.405C20.8093 7.38111 21.2498 6.98445 21.2474 6.44921C21.2427 5.74431 21.0379 5.00835 20.6284 4.43009C20.3998 4.1099 20.1546 3.84228 19.8451 3.60094C19.5332 3.3596 19.2093 3.18756 18.8379 3.04897C18.1689 2.79807 17.3832 2.78852 16.6974 2.97967C16.0332 3.16605 15.3855 3.56032 14.9474 4.10034C14.8165 4.26044 14.6879 4.42292 14.5832 4.59975C14.4713 4.78374 14.3903 4.98206 14.3093 5.18039C14.1736 5.51492 14.1117 5.87095 14.0832 6.23177C14.026 6.93905 14.2189 7.69174 14.5832 8.29628C14.9355 8.88171 15.4736 9.40022 16.0974 9.68457C16.2927 9.77298 16.4903 9.859 16.6974 9.91635C16.9046 9.9737 17.1189 10.0024 17.3308 10.0263C17.6951 10.0693 18.0641 10.0334 18.4213 9.96414C19.0974 9.83272 19.7522 9.45518 20.2308 8.95817C20.7141 8.45638 21.0784 7.7921 21.1855 7.09676C21.2189 6.88171 21.2474 6.66426 21.2498 6.44682C21.2522 5.94742 20.8093 5.46713 20.2974 5.49102C19.776 5.51731 19.3474 5.91396 19.3427 6.44921Z" fill="white"/>
<path d="M14.3927 16.3082C14.3927 16.6117 14.3927 16.9152 14.3927 17.2162C14.3927 17.5269 14.4189 17.8518 14.3832 18.1625C14.3951 18.0788 14.407 17.9928 14.4166 17.9092C14.4046 17.9952 14.3832 18.0765 14.3499 18.1553C14.3808 18.0788 14.4142 18.0024 14.4451 17.9259C14.4118 18.0024 14.3713 18.0741 14.3213 18.1434C14.3713 18.0788 14.4213 18.0143 14.4713 17.9498C14.4142 18.0239 14.3499 18.0884 14.2761 18.1457C14.3404 18.0956 14.4047 18.0454 14.4689 17.9952C14.4023 18.0454 14.3308 18.086 14.2523 18.1195C14.3285 18.0884 14.4046 18.0549 14.4808 18.0239C14.3999 18.0549 14.3213 18.0765 14.2356 18.0908C14.3189 18.0788 14.4047 18.0669 14.488 18.0573C14.3451 18.0741 14.1975 18.0669 14.0523 18.0669C13.7547 18.0669 13.457 18.0669 13.1618 18.0669C12.1689 18.0669 11.1785 18.0669 10.1856 18.0669C8.98084 18.0669 7.7737 18.0669 6.56894 18.0669C5.53084 18.0669 4.49036 18.0669 3.45227 18.0669C2.95941 18.0669 2.46894 18.0717 1.97608 18.0669C1.92846 18.0669 1.87846 18.0645 1.83084 18.0573C1.91417 18.0693 1.99989 18.0812 2.08322 18.0908C1.99751 18.0788 1.91655 18.0573 1.83798 18.0239C1.91417 18.0549 1.99036 18.0884 2.06655 18.1195C1.99036 18.086 1.91894 18.0454 1.84989 17.9952C1.91417 18.0454 1.97846 18.0956 2.04275 18.1457C1.96894 18.0884 1.90465 18.0239 1.84751 17.9498C1.89751 18.0143 1.94751 18.0788 1.99751 18.1434C1.94751 18.0765 1.90703 18.0048 1.8737 17.9259C1.90465 18.0024 1.93798 18.0788 1.96894 18.1553C1.93798 18.0741 1.91655 17.9928 1.90227 17.9092C1.91417 17.9928 1.92608 18.0788 1.9356 18.1625C1.90465 17.8901 1.92846 17.6057 1.92846 17.3333C1.92846 17.006 1.92846 16.6786 1.92846 16.3512C1.92846 16.1242 1.94036 15.8996 1.96894 15.675C1.95703 15.7586 1.94513 15.8447 1.9356 15.9283C1.99275 15.5006 2.10465 15.0848 2.27132 14.6882C2.24036 14.7646 2.20703 14.8411 2.17608 14.9176C2.3356 14.54 2.54275 14.1864 2.79036 13.859C2.74036 13.9235 2.69036 13.988 2.64036 14.0526C2.89513 13.7228 3.19036 13.4265 3.51894 13.1708C3.45465 13.221 3.39036 13.2712 3.32608 13.3214C3.64989 13.0729 4.00465 12.865 4.38084 12.7049C4.30465 12.7359 4.22846 12.7694 4.15227 12.8005C4.54751 12.6332 4.96179 12.5209 5.38798 12.4635C5.30465 12.4755 5.21894 12.4874 5.1356 12.497C5.44989 12.4564 5.76179 12.4564 6.07608 12.4564C6.47132 12.4564 6.86655 12.4564 7.26417 12.4564C8.20703 12.4564 9.14989 12.4564 10.0927 12.4564C10.4642 12.4564 10.8356 12.4516 11.207 12.4994C11.1237 12.4874 11.038 12.4755 10.9546 12.4659C11.3737 12.5257 11.7808 12.638 12.1713 12.8005C12.0951 12.7694 12.0189 12.7359 11.9427 12.7049C12.3213 12.8674 12.6761 13.0776 13.0047 13.3285C12.9404 13.2784 12.8761 13.2282 12.8118 13.178C13.138 13.4337 13.4308 13.7276 13.6856 14.0573C13.6356 13.9928 13.5856 13.9283 13.5356 13.8638C13.7808 14.1864 13.9856 14.5376 14.1451 14.9128C14.1142 14.8363 14.0808 14.7598 14.0499 14.6834C14.2142 15.0776 14.3285 15.491 14.3856 15.9164C14.3737 15.8327 14.3618 15.7467 14.3523 15.6631C14.3785 15.8781 14.3927 16.0932 14.3927 16.3082C14.3951 16.8076 14.8285 17.2879 15.3451 17.264C15.8594 17.2401 16.2999 16.8435 16.2975 16.3082C16.2951 15.6702 16.1951 15.0155 15.9785 14.4158C15.8642 14.0956 15.7261 13.7802 15.5618 13.4839C15.3975 13.1876 15.1975 12.9176 14.988 12.6523C14.2023 11.6583 13.0142 10.9319 11.7761 10.6786C11.1737 10.5543 10.5785 10.5472 9.96894 10.5472C9.32132 10.5472 8.67608 10.5472 8.02846 10.5472C7.41417 10.5472 6.79751 10.5472 6.18322 10.5472C5.5737 10.5472 4.96894 10.5711 4.3737 10.7168C2.23322 11.2401 0.464174 13.0968 0.116555 15.2927C0.00464992 16.0072 0.0236975 16.7168 0.0236975 17.4385C0.0236975 17.6678 0.00941183 17.902 0.0284594 18.1314C0.0665547 18.6045 0.235602 19.006 0.549888 19.3644C0.787983 19.6344 1.16179 19.8542 1.51655 19.9259C1.80465 19.9833 2.0737 19.9785 2.36417 19.9785C2.75941 19.9785 3.15703 19.9785 3.55227 19.9785C4.81655 19.9785 6.07846 19.9785 7.34275 19.9785C8.73084 19.9785 10.1189 19.9785 11.507 19.9785C12.3832 19.9785 13.2618 19.9785 14.138 19.9785C14.207 19.9785 14.2761 19.9785 14.3451 19.9785C14.8689 19.9761 15.407 19.7682 15.7642 19.3739C16.0856 19.0203 16.257 18.6069 16.2951 18.1314C16.3023 18.0502 16.2999 17.9689 16.2999 17.8853C16.2999 17.5651 16.2999 17.2449 16.2999 16.9247C16.2999 16.7192 16.2999 16.5137 16.2999 16.3082C16.2999 15.8088 15.8618 15.3285 15.3475 15.3524C14.8285 15.3739 14.3927 15.7706 14.3927 16.3082Z" fill="white"/>
<path d="M22.0715 15.0514C22.0715 15.3285 22.0715 15.6057 22.0715 15.8829C22.0715 16.1625 22.0906 16.4516 22.0668 16.7312C22.0787 16.6475 22.0906 16.5615 22.1001 16.4779C22.0929 16.5305 22.081 16.5806 22.062 16.6308C22.0929 16.5544 22.1263 16.4779 22.1572 16.4014C22.1358 16.4492 22.112 16.4922 22.081 16.5352C22.131 16.4707 22.181 16.4062 22.231 16.3417C22.1977 16.3823 22.1644 16.4182 22.1239 16.4492C22.1882 16.399 22.2525 16.3489 22.3168 16.2987C22.2739 16.3297 22.231 16.3536 22.1834 16.3751C22.2596 16.3441 22.3358 16.3106 22.412 16.2796C22.362 16.2987 22.312 16.3106 22.2596 16.3178C22.3429 16.3058 22.4287 16.2939 22.512 16.2843C22.2644 16.3058 22.0096 16.2891 21.762 16.2891C21.1953 16.2891 20.631 16.2891 20.0644 16.2891C18.7858 16.2891 17.5096 16.2891 16.231 16.2891C15.9358 16.2891 15.6406 16.2891 15.343 16.2891C15.6596 16.6069 15.9787 16.9271 16.2953 17.2449C16.2953 16.7694 16.3191 16.2867 16.2715 15.8136C16.1691 14.8029 15.8453 13.8112 15.2429 12.9845C15.062 12.7383 14.8715 12.4946 14.6596 12.2748C14.4358 12.0454 14.1906 11.8495 13.9358 11.6535C14.0001 12.1529 14.0644 12.6547 14.1287 13.1541C14.1858 13.1039 14.2429 13.0561 14.3025 13.0107C14.2382 13.0609 14.1739 13.1111 14.1096 13.1613C14.3406 12.9845 14.5906 12.8387 14.8572 12.724C14.781 12.7551 14.7049 12.7885 14.6287 12.8196C14.9025 12.7049 15.1882 12.626 15.481 12.583C15.3977 12.595 15.312 12.6069 15.2287 12.6165C15.4834 12.583 15.7358 12.583 15.9929 12.583C16.3239 12.583 16.6549 12.583 16.9858 12.583C17.7453 12.583 18.5025 12.583 19.262 12.583C19.5358 12.583 19.8072 12.5782 20.081 12.6141C19.9977 12.6021 19.912 12.5902 19.8287 12.5806C20.1263 12.6236 20.4144 12.7025 20.693 12.8172C20.6168 12.7861 20.5406 12.7527 20.4644 12.7216C20.7334 12.8387 20.9882 12.9869 21.2191 13.1661C21.1549 13.1159 21.0906 13.0657 21.0263 13.0155C21.2572 13.1947 21.462 13.4026 21.6406 13.632C21.5906 13.5675 21.5406 13.503 21.4906 13.4385C21.6691 13.6726 21.8168 13.9259 21.9334 14.1959C21.9025 14.1195 21.8691 14.043 21.8382 13.9665C21.9549 14.2437 22.0334 14.5352 22.0739 14.8339C22.062 14.7503 22.0501 14.6643 22.0406 14.5806C22.062 14.7407 22.0715 14.896 22.0715 15.0514C22.0715 15.2975 22.1763 15.5532 22.3501 15.7276C22.5144 15.8925 22.7858 16.0191 23.0239 16.0072C23.5382 15.9833 23.9787 15.5866 23.9763 15.0514C23.9715 13.816 23.4382 12.5711 22.493 11.7658C22.0025 11.3477 21.4549 11.0323 20.8358 10.8483C20.4263 10.7264 19.9882 10.6738 19.562 10.6738C18.3668 10.6738 17.1715 10.6738 15.9787 10.6738C15.6406 10.6738 15.312 10.6906 14.9739 10.7407C14.1525 10.8626 13.4025 11.2616 12.781 11.8041C12.5572 12 12.481 12.325 12.5191 12.6069C12.5239 12.7336 12.562 12.853 12.631 12.963C12.7168 13.1063 12.8287 13.221 12.9739 13.307C12.9834 13.3142 12.9929 13.3214 13.0025 13.3285C12.9382 13.2784 12.8739 13.2282 12.8096 13.178C13.1358 13.4337 13.4287 13.7276 13.6834 14.0573C13.6334 13.9928 13.5834 13.9283 13.5334 13.8638C13.7787 14.1864 13.9834 14.5376 14.143 14.9128C14.112 14.8363 14.0787 14.7598 14.0477 14.6834C14.212 15.0777 14.3263 15.491 14.3834 15.9164C14.3715 15.8327 14.3596 15.7467 14.3501 15.6631C14.4168 16.184 14.393 16.7168 14.393 17.2425C14.393 17.7587 14.8287 18.1983 15.3453 18.1983C15.7263 18.1983 16.1096 18.1983 16.4906 18.1983C17.3287 18.1983 18.1668 18.1983 19.0025 18.1983C19.8191 18.1983 20.6334 18.1983 21.4501 18.1983C21.7049 18.1983 21.9596 18.1983 22.2144 18.1983C22.4953 18.1983 22.762 18.1864 23.031 18.0741C23.6049 17.8303 23.9596 17.2879 23.9763 16.6619C23.9787 16.5448 23.9763 16.4253 23.9763 16.3058C23.9763 15.914 23.9763 15.5221 23.9763 15.1302C23.9763 15.1015 23.9763 15.0753 23.9763 15.0466C23.9763 14.5472 23.5382 14.0669 23.0239 14.0908C22.5072 14.1195 22.0715 14.5161 22.0715 15.0514Z" fill="white"/>
</svg>
