<svg width="24" height="22" viewBox="0 0 24 22" fill="none" xmlns="http://www.w3.org/2000/svg">
<path fill-rule="evenodd" clip-rule="evenodd" d="M20.125 3.64222H16.025V2.76222C16.025 1.24667 14.775 0.0244446 13.225 0.0244446H10.775C9.225 0.0244446 7.975 1.24667 7.975 2.76222V3.64222H3.875C1.8 3.64222 0.125 5.28 0.125 7.30889V16.8667C0.125 18.8956 1.8 20.5333 3.875 20.5333H3.9C4.1 21.34 4.85 21.9511 5.725 21.9511C6.625 21.9511 7.375 21.34 7.55 20.5333H16.45C16.65 21.34 17.4 21.9511 18.275 21.9511C19.175 21.9511 19.925 21.34 20.1 20.5333H20.125C22.2 20.5333 23.875 18.8956 23.875 16.8667V7.30889C23.875 5.28 22.2 3.64222 20.125 3.64222ZM9.775 2.76222C9.775 2.22444 10.225 1.78444 10.775 1.78444H13.225C13.775 1.78444 14.225 2.22444 14.225 2.76222V3.64222H9.775V2.76222ZM20.125 18.7733C21.2 18.7733 22.075 17.9178 22.075 16.8667H22.1V7.30889C22.1 6.25778 21.225 5.40222 20.15 5.40222H3.875C2.8 5.40222 1.925 6.25778 1.925 7.30889V16.8667C1.925 17.9178 2.8 18.7733 3.875 18.7733H20.125Z" fill="white"/>
<ellipse cx="6.7002" cy="14.8133" rx="1.875" ry="1.46667" fill="white"/>
<path d="M9.89984 8.31111L6.82484 8.75111C6.52484 8.8 6.32484 9.06889 6.37484 9.33778L6.59984 10.78C6.64984 11.0733 6.92484 11.2689 7.19984 11.22L10.2748 10.78C10.5748 10.7311 10.7748 10.4622 10.7248 10.1933L10.4998 8.75111C10.4748 8.48223 10.1998 8.28667 9.89984 8.31111Z" fill="white"/>
<path d="M15.8751 13.8844L12.5501 12.9311C12.2751 12.8578 11.9751 13.0044 11.9001 13.2978L11.5001 14.6911C11.4251 14.96 11.5751 15.2533 11.8751 15.3267L15.2001 16.28C15.4751 16.3533 15.7751 16.2067 15.8501 15.9133L16.2501 14.52C16.3251 14.2511 16.1501 13.9578 15.8751 13.8844Z" fill="white"/>
<ellipse cx="16.7607" cy="9.7813" rx="1.8833" ry="2.42371" transform="rotate(-81.0021 16.7607 9.7813)" fill="white"/>
</svg>
